# xmcd
#
# Track frame offsets:
# 150
# 11554
# 27070
# 47176
# 66282
# 79650
# 90074
# 98398
# 123426
# 135440
# 160164
# 174000
# 191064
#
# Disc length: 2887 seconds
#
#
# Revision: 0
# Processed by: cddbd v1.5.2PL0 Copyright (c) Steve Scherf et al.
# Submitted via: Nero 7, 11, 10, 0 
#
DISCID=8d0b450d
DTITLE=James Hinkle - Some Day
DYEAR=2008
DGENRE=Blues
TTITLE0=Ball And Chain
TTITLE1=Happy Accident
TTITLE2=Some Day
TTITLE3=Mardi Gras Girl
TTITLE4=Bitch On Wheels
TTITLE5=Remember Me Baby
TTITLE6=Three Legged Alligator
TTITLE7=Fall Of A Lifetime
TTITLE8=I Have No Idea
TTITLE9=I Know What You're Looking For
TTITLE10=I Saw The Devil In Your Eyes Last Night
TTITLE11=Got Some Making Up To Do
TTITLE12=Slipping Back
EXTD=
EXTT0=Ball And Chain
EXTT1=Happy Accident
EXTT2=Some Day
EXTT3=Mardi Gras Girl
EXTT4=Bitch On Wheels
EXTT5=Remember Me Baby
EXTT6=Three Legged Alligator
EXTT7=Fall Of A Lifetime
EXTT8=I Have No Idea
EXTT9=I Know What You're Looking For
EXTT10=I Saw The Devil In Your Eyes Last Night
EXTT11=Got Some Making Up To Do
EXTT12=Slipping Back
PLAYORDER=
